#!OML:ASF F:\VICON\USERDATA\INSTALL\rory3\rory3.ASF
:FULLY-SPECIFIED
:DEGREES
56
root -0.5277609773844592 17.63060933337672 24.715223903929555 1.161880079869111 6.871501903288003 0.9419331463344172
lfemur -7.048803421451096 -6.043832919512294 -28.882586381591256
ltibia 1.199415793897792
lfoot -21.975935990457057 -12.524364442772029
ltoes -12.638889442497081
rfemur -11.064029016148567 -4.429200834509458 23.893012713453206
rtibia 78.88587156272617
rfoot 32.2242567370616 -11.865178854659966
rtoes 44.92384971755162
lowerback 1.0 0.077354226435359 1.13257530721121
upperback 0.8175499923118438 1.5910699107093593 -0.4036713145838009
thorax -10.40182184678313 0.3190603274949678 0.4911242320227213
lowerneck -24.74644943356241 -4.730426395719985 -1.7647623730742958
upperneck 10.219666887478585 -6.014751191642798 3.4163574055440433
head 7.153008583040982 -2.527899464382381 0.7785480814335097
lclavicle 7.993499580303147e-14 8.179082079651764e-15
lhumerus -54.82408937164622 -7.177683512991682 93.68679157378547
lradius 129.1261475033702
lwrist 46.52104624135306
lhand -32.53331962128617 -0.9501283060612733
lfingers nan
lthumb -6.105986762587335 28.647057051188867
rclavicle 7.322890188375172e-14 4.332393159045733e-15
rhumerus -56.62696117620697 9.97021493553977 -106.60016321084862
rradius 123.74465236671196
rwrist -19.79146125192566
rhand -16.619719290819443 1.0
rfingers nan
rthumb 9.214751914944019 0.9746672088457249
57
root -0.5272457871717083 17.577545460373614 25.5804694514995 1.3028200316462368 6.653264503066727 0.940446940848263
lfemur -5.841749935105478 -6.040295137538284 -29.019322202999454
ltibia 4.379637019065463
lfoot -26.11972798012058 -10.688703073111355
ltoes -12.163884051896959
rfemur -13.55715908425665 -5.2608427044658255 22.92035582936849
rtibia 82.66070844036294
rfoot 30.970077946293102 -10.637800785676315
rtoes 43.886179319036444
lowerback 1.0 -0.015112499859089912 0.9285502277137135
upperback 0.7375096154512218 1.436573047614532 -0.34209835869497907
thorax -10.801698295864298 0.2842166105468046 0.687737903192206
lowerneck -25.180056868372837 -4.5831673407353515 -1.8410802914472773
upperneck 9.7079699796672 -5.913723494048167 3.797435076674008
head 7.118098977015198 -2.4317416407927057 0.9182155619541388
lclavicle -1.6753836047435243e-14 -1.2025685346903405e-14
lhumerus -53.003685538131265 -7.835743991900618 93.87550504850331
lradius 129.65377827747488
lwrist 45.74565810329092
lhand -32.385171480473346 -1.126278924937733
lfingers nan
lthumb -5.985916546836952 28.440020180836704
rclavicle -2.2615894367160055e-14 -1.6018555912629072e-14
rhumerus -56.91901680753861 9.73728678758342 -106.1991534044195
rradius 122.15491149212896
rwrist -19.421645246714345
rhand -16.85199776271902 1.0
rfingers nan
rthumb 9.070849062474762 1.8695747579140685
58
root -0.5264562007610171 17.532033844435407 26.226074874016938 1.6101062978876435 6.667541099155026 0.9279549905727817
lfemur -4.947645816619707 -6.221369093953691 -29.258012615398208
ltibia 7.280342862045025
lfoot -29.39866283559056 -8.080869598384817
ltoes -15.202525254469474
rfemur -16.122995287077575 -6.20361013788025 22.00986911311587
rtibia 86.32191491774128
rfoot 28.607363374309433 -9.983654567214579
rtoes 39.737935359257555
lowerback 1.0 -0.14462287872464685 0.8021111359773735
upperback 0.6478036633435026 1.2274198734419084 -0.36050551787250007
thorax -10.687688455131381 0.21956611737092877 0.8326211251499487
lowerneck -25.432028286079834 -4.404091861136299 -1.8438088289418477
upperneck 9.188020111051939 -5.807889843188326 4.14416033620209
head 7.056346348223693 -2.3295557940002296 1.0290740202047772
lclavicle 5.76256752575741e-14 4.112844325401802e-15
lhumerus -50.897017072909634 -8.691689344813437 93.99111255264077
lradius 129.91961699829335
lwrist 44.77338078294529
lhand -32.72006398902171 -1.8121829522743889
lfingers nan
lthumb -6.354169735990766 27.704770679580477
rclavicle 5.24678690896299e-14 2.9057002482124126e-16
rhumerus -56.925765962267405 9.441899258650897 -105.48946600191535
rradius 120.0581620885254
rwrist -18.221827812123962
rhand -21.16865370932338 1.0
rfingers nan
rthumb 4.829660475407714 -5.192161814201501
59
root -0.5248647827827159 17.49690613896434 26.62997991213629 1.8959176591498974 6.9619112292165 1.4050662867921968
lfemur -3.785897115195503 -6.79339618012766 -29.911974885103227
ltibia 9.4059203459094
lfoot -31.204584353483394 -5.742143660544809
ltoes -12.176813906183181
rfemur -18.347778385242744 -7.397187359200607 20.340541920326764
rtibia 89.5235613092064
rfoot 25.393584675665483 -9.774107289595234
rtoes 30.642012044097513
lowerback 1.0 -0.29137319229989567 0.16935550539822142
upperback 0.7328034869486743 0.9188512082168961 -0.5637357879618172
thorax -10.117537457013606 0.11828268447368845 1.0674151402126042
lowerneck -25.61661055911761 -4.312094609373788 -1.7513425605525996
upperneck 8.461797453573174 -5.839441621558461 4.439048945893131
head 6.914454640377027 -2.2889066463796097 1.081595959242115
lclavicle 4.549911449866777e-14 -1.2015749216269269e-14
lhumerus -48.49478776570311 -9.78383434672323 94.02537736022691
lradius 130.15657005062343
lwrist 44.1022169149504
lhand -33.331518394748734 -2.1470211544825277
lfingers nan
lthumb -6.959251975082395 27.357326001897494
rclavicle 4.033527687718098e-14 -1.6464933545316596e-14
rhumerus -56.84383995461925 9.128235291779731 -104.85889934263321
rradius 117.85661467740172
rwrist -17.1867772560864
rhand -20.13360368323811 1.0
rfingers nan
rthumb 5.906868226456356 -2.949354005425203
60
root -0.5334148691700029 17.454947725183562 27.05088386452866 2.084042627471135 6.9132472696176075 2.091255580328466
lfemur -2.2930642671317187 -7.094674394883919 -30.871786683322927
ltibia 10.931973413243846
lfoot -33.811527054892366 -2.6818826024569447
ltoes -12.115268124228315
rfemur -20.602767710061975 -8.46482588066921 18.24507268211088
rtibia 92.6794622058492
rfoot 23.160345740263317 -9.229651433081777
rtoes 30.316316716516756
lowerback 1.0 -0.3806925302023353 -0.6770097607790728
upperback 0.6658109411071605 0.6697224352967454 -0.8440929719619341
thorax -10.342384727701695 0.025674933951665813 1.306757281442903
lowerneck -25.406347451972945 -4.3390834320930995 -1.7203793815463766
upperneck 7.694587068931007 -6.008834917441861 4.738965393322752
head 6.701580111728952 -2.3148095253550047 1.1390582669695308
lclavicle 2.334389224799389e-14 -5.880518351806517e-15
lhumerus -46.265338607461814 -10.898173833101211 94.04366812837021
lradius 130.43345071787587
lwrist 44.48264236058775
lhand -33.47498694856933 -2.7457748735678633
lfingers nan
lthumb -7.0937714646728445 26.76421167567937
rclavicle 1.867054610610755e-14 -9.9959437189149e-15
rhumerus -57.10427309985756 8.66494719733996 -104.48074901014783
rradius 116.13972231698479
rwrist -16.98523110327735
rhand -17.839157173695916 1.0
rfingers nan
rthumb 8.17164501459294 -2.6858787139148
